<?xml version="1.0" encoding="UTF-8"?>
<svg version="1.2" baseProfile="tiny" width="20mm" height="20mm" viewBox="0 0 10000 10000" preserveAspectRatio="xMidYMid" clip-path="url(#presentation_clip_path)" xmlns="http://www.w3.org/2000/svg">
	<defs class="ClipPathGroup">
		<clipPath id="presentation_clip_path" clipPathUnits="userSpaceOnUse">
			<rect x="0" y="0" width="10000" height="10000"/>
		</clipPath>
	</defs>
	<g id="id1" class="Slide" clip-path="url(#presentation_clip_path)">
		<path fill="rgb(0,102,204)" stroke="none" d="M 5000,0 L 5523,25 6029,99 6514,218 6977,383 7416,589 7828,835 8211,1118 8563,1437 8882,1789 9165,2172 9411,2584 9617,3023 9782,3486 9901,3971 9975,4477 10000,5000 9975,5523 9901,6029 9782,6514 9617,6977 9411,7416 9165,7828 8882,8211 8563,8563 8211,8882 7828,9165 7416,9411 6977,9617 6514,9782 6029,9901 5523,9975 5000,10000 4477,9975 3971,9901 3486,9782 3023,9617 2584,9411 2172,9165 1789,8882 1437,8563 1118,8211 835,7828 589,7416 383,6977 218,6514 99,6029 25,5523 0,5000 25,4477 99,3971 218,3486 383,3023 589,2584 835,2172 1118,1789 1437,1437 1789,1118 2172,835 2584,589 3023,383 3486,218 3971,99 4477,25 5000,0 Z M 0,0 L 0,0 Z M 10001,10001 L 10001,10001 Z"/>
		<path fill="rgb(255,255,255)" stroke="none" d="M 1775,7417 L 2027,7435 2119,7439 2202,7441 2322,7438 2431,7431 2531,7419 2624,7402 2711,7378 2793,7349 2871,7313 2947,7270 3019,7224 3090,7170 3161,7110 3232,7042 3371,6889 3505,6712 3633,6516 3754,6302 3865,6074 3964,5834 4048,5594 4138,5289 4469,3987 4756,5190 4919,5843 5079,6381 5161,6618 5246,6838 5335,7046 5431,7247 5522,7422 5618,7585 5719,7737 5826,7877 5937,8006 6053,8124 6175,8230 6301,8326 6433,8409 6570,8482 6712,8543 6860,8593 7012,8632 7171,8660 7334,8677 7503,8683 7646,8679 7781,8668 7909,8650 8033,8622 8154,8585 8276,8538 8399,8480 8528,8411 8341,7720 8268,7887 8237,7954 8206,8013 8177,8065 8146,8113 8113,8158 8077,8201 8023,8262 7963,8316 7932,8340 7900,8362 7867,8383 7834,8401 7800,8418 7765,8432 7730,8444 7694,8455 7658,8463 7622,8468 7586,8472 7550,8473 7458,8469 7368,8455 7279,8433 7190,8402 7103,8362 7017,8313 6931,8255 6847,8189 6764,8113 6682,8029 6601,7936 6522,7834 6366,7604 6215,7340 6611,5555 6834,4679 7019,4030 7104,3769 7188,3538 7273,3329 7363,3134 7426,3021 7458,2971 7492,2926 7527,2885 7564,2848 7603,2815 7644,2786 7687,2761 7732,2740 7780,2722 7832,2708 7886,2697 7943,2689 8005,2685 8070,2683 8110,2684 8154,2685 8208,2690 8279,2699 8566,2179 8434,2168 8376,2165 8326,2164 8264,2166 8202,2174 8140,2187 8076,2206 8012,2230 7948,2260 7882,2295 7815,2335 7680,2433 7540,2553 7396,2696 7247,2862 7117,3026 7059,3111 7004,3201 6901,3404 6804,3650 6706,3953 6602,4331 6354,5368 6106,6470 6094,6522 6071,6616 5990,6913 5861,6648 5746,6387 5633,6092 5510,5725 5191,4628 4694,2792 4430,3033 4199,3015 4102,3011 4003,3010 3837,3014 3686,3026 3548,3048 3421,3079 3303,3121 3191,3173 3084,3237 2978,3312 2800,3465 2638,3630 2495,3805 2373,3984 2321,4075 2274,4166 2235,4256 2201,4346 2175,4434 2156,4520 2144,4604 2140,4686 2143,4759 2151,4834 2165,4911 2185,4992 2211,5077 2245,5168 2286,5265 2334,5369 2870,5004 2749,4737 2706,4628 2673,4533 2649,4448 2633,4370 2624,4296 2621,4224 2623,4181 2627,4139 2635,4097 2645,4056 2659,4016 2675,3977 2693,3939 2715,3903 2738,3868 2765,3834 2793,3802 2824,3772 2858,3743 2893,3716 2931,3691 2971,3668 3041,3634 3113,3606 3189,3583 3270,3565 3360,3552 3458,3544 3569,3539 3692,3537 4290,3537 4029,4601 3791,5452 3680,5800 3574,6097 3472,6343 3374,6539 3312,6638 3280,6681 3247,6719 3212,6754 3175,6784 3136,6811 3095,6834 3050,6854 3003,6871 2951,6884 2896,6895 2773,6909 2629,6913 2415,6910 2294,6903 2148,6889 1775,7417 Z"/>
	 </g>
</svg>
